<mxfile host="app.diagrams.net" agent="Mozilla/5.0 (Windows NT 10.0; Win64; x64) AppleWebKit/537.36 (KHTML, like Gecko) Chrome/113.0.0.0 Safari/537.36" version="24.7.17">
  <diagram name="第 1 页" id="s71X2hppAl8pRZz3mtie">
    <mxGraphModel dx="3088" dy="788" grid="1" gridSize="10" guides="1" tooltips="1" connect="1" arrows="1" fold="1" page="1" pageScale="1" pageWidth="827" pageHeight="1169" math="0" shadow="0">
      <root>
        <mxCell id="0" />
        <mxCell id="1" parent="0" />
        <mxCell id="SeW6sfpvjPIFp4UaxVlG-96" value="" style="rounded=0;whiteSpace=wrap;html=1;sketch=1;hachureGap=4;jiggle=2;curveFitting=1;fontFamily=Architects Daughter;fontSource=https%3A%2F%2Ffonts.googleapis.com%2Fcss%3Ffamily%3DArchitects%2BDaughter;" vertex="1" parent="1">
          <mxGeometry x="-1210" y="740" width="960" height="280" as="geometry" />
        </mxCell>
        <mxCell id="SeW6sfpvjPIFp4UaxVlG-6" style="edgeStyle=orthogonalEdgeStyle;rounded=0;sketch=1;hachureGap=4;jiggle=2;curveFitting=1;orthogonalLoop=1;jettySize=auto;html=1;exitX=0.5;exitY=1;exitDx=0;exitDy=0;entryX=0.5;entryY=0;entryDx=0;entryDy=0;fontFamily=Architects Daughter;fontSource=https%3A%2F%2Ffonts.googleapis.com%2Fcss%3Ffamily%3DArchitects%2BDaughter;" edge="1" parent="1" source="SeW6sfpvjPIFp4UaxVlG-1" target="SeW6sfpvjPIFp4UaxVlG-8">
          <mxGeometry relative="1" as="geometry">
            <mxPoint x="-87.25" y="120" as="targetPoint" />
          </mxGeometry>
        </mxCell>
        <mxCell id="SeW6sfpvjPIFp4UaxVlG-1" value="Live DSL Tree&lt;br&gt;live_design! {}" style="rounded=1;whiteSpace=wrap;html=1;sketch=1;hachureGap=4;jiggle=2;curveFitting=1;fontFamily=Comic Sans MS;fontSize=15;fontStyle=1;labelBackgroundColor=none;fillColor=#f5f5f5;strokeColor=#666666;gradientColor=#b3b3b3;" vertex="1" parent="1">
          <mxGeometry x="-160" y="20" width="145.5" height="50" as="geometry" />
        </mxCell>
        <mxCell id="SeW6sfpvjPIFp4UaxVlG-73" style="edgeStyle=orthogonalEdgeStyle;rounded=0;sketch=1;hachureGap=4;jiggle=2;curveFitting=1;orthogonalLoop=1;jettySize=auto;html=1;entryX=0.5;entryY=0;entryDx=0;entryDy=0;fontFamily=Architects Daughter;fontSource=https%3A%2F%2Ffonts.googleapis.com%2Fcss%3Ffamily%3DArchitects%2BDaughter;curved=1;exitX=0.492;exitY=1.043;exitDx=0;exitDy=0;exitPerimeter=0;" edge="1" parent="1" source="SeW6sfpvjPIFp4UaxVlG-15" target="SeW6sfpvjPIFp4UaxVlG-18">
          <mxGeometry relative="1" as="geometry">
            <Array as="points">
              <mxPoint x="-89" y="340" />
              <mxPoint x="-320" y="340" />
              <mxPoint x="-320" y="400" />
              <mxPoint x="-425" y="400" />
            </Array>
          </mxGeometry>
        </mxCell>
        <mxCell id="SeW6sfpvjPIFp4UaxVlG-74" style="edgeStyle=orthogonalEdgeStyle;rounded=0;sketch=1;hachureGap=4;jiggle=2;curveFitting=1;orthogonalLoop=1;jettySize=auto;html=1;entryX=0.5;entryY=0;entryDx=0;entryDy=0;fontFamily=Architects Daughter;fontSource=https%3A%2F%2Ffonts.googleapis.com%2Fcss%3Ffamily%3DArchitects%2BDaughter;curved=1;exitX=0.545;exitY=1.043;exitDx=0;exitDy=0;exitPerimeter=0;" edge="1" parent="1" source="SeW6sfpvjPIFp4UaxVlG-15" target="SeW6sfpvjPIFp4UaxVlG-50">
          <mxGeometry relative="1" as="geometry">
            <mxPoint x="-30" y="310" as="sourcePoint" />
            <Array as="points">
              <mxPoint x="-80" y="283" />
              <mxPoint x="-80" y="345" />
              <mxPoint x="-85" y="345" />
            </Array>
          </mxGeometry>
        </mxCell>
        <mxCell id="SeW6sfpvjPIFp4UaxVlG-75" style="edgeStyle=orthogonalEdgeStyle;rounded=0;sketch=1;hachureGap=4;jiggle=2;curveFitting=1;orthogonalLoop=1;jettySize=auto;html=1;entryX=0.5;entryY=0;entryDx=0;entryDy=0;fontFamily=Architects Daughter;fontSource=https%3A%2F%2Ffonts.googleapis.com%2Fcss%3Ffamily%3DArchitects%2BDaughter;curved=1;exitX=0.592;exitY=1.057;exitDx=0;exitDy=0;exitPerimeter=0;" edge="1" parent="1" source="SeW6sfpvjPIFp4UaxVlG-15" target="SeW6sfpvjPIFp4UaxVlG-71">
          <mxGeometry relative="1" as="geometry">
            <mxPoint x="-40" y="300" as="sourcePoint" />
            <Array as="points">
              <mxPoint x="-66" y="330" />
              <mxPoint x="110" y="330" />
              <mxPoint x="110" y="460" />
              <mxPoint x="220" y="460" />
            </Array>
          </mxGeometry>
        </mxCell>
        <mxCell id="SeW6sfpvjPIFp4UaxVlG-8" value="LiveBody" style="shape=table;startSize=30;container=1;collapsible=0;childLayout=tableLayout;fixedRows=1;rowLines=0;fontStyle=1;strokeColor=default;fontSize=16;sketch=1;hachureGap=4;jiggle=2;curveFitting=1;fontFamily=Comic Sans MS;" vertex="1" parent="1">
          <mxGeometry x="-202.25" y="120" width="230" height="160" as="geometry" />
        </mxCell>
        <mxCell id="SeW6sfpvjPIFp4UaxVlG-9" value="" style="shape=tableRow;horizontal=0;startSize=0;swimlaneHead=0;swimlaneBody=0;top=0;left=0;bottom=0;right=0;collapsible=0;dropTarget=0;fillColor=none;points=[[0,0.5],[1,0.5]];portConstraint=eastwest;strokeColor=inherit;fontSize=16;sketch=1;hachureGap=4;jiggle=2;curveFitting=1;fontFamily=Architects Daughter;fontSource=https%3A%2F%2Ffonts.googleapis.com%2Fcss%3Ffamily%3DArchitects%2BDaughter;" vertex="1" parent="SeW6sfpvjPIFp4UaxVlG-8">
          <mxGeometry y="30" width="230" height="30" as="geometry" />
        </mxCell>
        <mxCell id="SeW6sfpvjPIFp4UaxVlG-10" value="&lt;font face=&quot;Comic Sans MS&quot;&gt;&lt;b&gt;1&lt;/b&gt;&lt;/font&gt;" style="shape=partialRectangle;html=1;whiteSpace=wrap;connectable=0;fillColor=none;top=0;left=0;bottom=0;right=0;overflow=hidden;pointerEvents=1;strokeColor=inherit;fontSize=16;sketch=1;hachureGap=4;jiggle=2;curveFitting=1;fontFamily=Architects Daughter;fontSource=https%3A%2F%2Ffonts.googleapis.com%2Fcss%3Ffamily%3DArchitects%2BDaughter;" vertex="1" parent="SeW6sfpvjPIFp4UaxVlG-9">
          <mxGeometry width="51" height="30" as="geometry">
            <mxRectangle width="51" height="30" as="alternateBounds" />
          </mxGeometry>
        </mxCell>
        <mxCell id="SeW6sfpvjPIFp4UaxVlG-11" value="&lt;b&gt;&lt;font face=&quot;Comic Sans MS&quot;&gt;file&lt;/font&gt;&lt;/b&gt;" style="shape=partialRectangle;html=1;whiteSpace=wrap;connectable=0;fillColor=none;top=0;left=0;bottom=0;right=0;align=left;spacingLeft=6;overflow=hidden;strokeColor=inherit;fontSize=16;sketch=1;hachureGap=4;jiggle=2;curveFitting=1;fontFamily=Architects Daughter;fontSource=https%3A%2F%2Ffonts.googleapis.com%2Fcss%3Ffamily%3DArchitects%2BDaughter;" vertex="1" parent="SeW6sfpvjPIFp4UaxVlG-9">
          <mxGeometry x="51" width="179" height="30" as="geometry">
            <mxRectangle width="179" height="30" as="alternateBounds" />
          </mxGeometry>
        </mxCell>
        <mxCell id="SeW6sfpvjPIFp4UaxVlG-12" value="" style="shape=tableRow;horizontal=0;startSize=0;swimlaneHead=0;swimlaneBody=0;top=0;left=0;bottom=0;right=0;collapsible=0;dropTarget=0;fillColor=none;points=[[0,0.5],[1,0.5]];portConstraint=eastwest;strokeColor=inherit;fontSize=16;sketch=1;hachureGap=4;jiggle=2;curveFitting=1;fontFamily=Architects Daughter;fontSource=https%3A%2F%2Ffonts.googleapis.com%2Fcss%3Ffamily%3DArchitects%2BDaughter;" vertex="1" parent="SeW6sfpvjPIFp4UaxVlG-8">
          <mxGeometry y="60" width="230" height="30" as="geometry" />
        </mxCell>
        <mxCell id="SeW6sfpvjPIFp4UaxVlG-13" value="&lt;b&gt;&lt;font face=&quot;Comic Sans MS&quot;&gt;2&lt;/font&gt;&lt;/b&gt;" style="shape=partialRectangle;html=1;whiteSpace=wrap;connectable=0;fillColor=none;top=0;left=0;bottom=0;right=0;overflow=hidden;strokeColor=inherit;fontSize=16;sketch=1;hachureGap=4;jiggle=2;curveFitting=1;fontFamily=Architects Daughter;fontSource=https%3A%2F%2Ffonts.googleapis.com%2Fcss%3Ffamily%3DArchitects%2BDaughter;" vertex="1" parent="SeW6sfpvjPIFp4UaxVlG-12">
          <mxGeometry width="51" height="30" as="geometry">
            <mxRectangle width="51" height="30" as="alternateBounds" />
          </mxGeometry>
        </mxCell>
        <mxCell id="SeW6sfpvjPIFp4UaxVlG-14" value="&lt;b&gt;&lt;font face=&quot;Comic Sans MS&quot;&gt;code&lt;/font&gt;&lt;/b&gt;" style="shape=partialRectangle;html=1;whiteSpace=wrap;connectable=0;fillColor=none;top=0;left=0;bottom=0;right=0;align=left;spacingLeft=6;overflow=hidden;strokeColor=inherit;fontSize=16;sketch=1;hachureGap=4;jiggle=2;curveFitting=1;fontFamily=Architects Daughter;fontSource=https%3A%2F%2Ffonts.googleapis.com%2Fcss%3Ffamily%3DArchitects%2BDaughter;" vertex="1" parent="SeW6sfpvjPIFp4UaxVlG-12">
          <mxGeometry x="51" width="179" height="30" as="geometry">
            <mxRectangle width="179" height="30" as="alternateBounds" />
          </mxGeometry>
        </mxCell>
        <mxCell id="SeW6sfpvjPIFp4UaxVlG-15" value="" style="shape=tableRow;horizontal=0;startSize=0;swimlaneHead=0;swimlaneBody=0;top=0;left=0;bottom=0;right=0;collapsible=0;dropTarget=0;fillColor=none;points=[[0,0.5],[1,0.5]];portConstraint=eastwest;strokeColor=inherit;fontSize=16;sketch=1;hachureGap=4;jiggle=2;curveFitting=1;fontFamily=Architects Daughter;fontSource=https%3A%2F%2Ffonts.googleapis.com%2Fcss%3Ffamily%3DArchitects%2BDaughter;" vertex="1" parent="SeW6sfpvjPIFp4UaxVlG-8">
          <mxGeometry y="90" width="230" height="70" as="geometry" />
        </mxCell>
        <mxCell id="SeW6sfpvjPIFp4UaxVlG-16" value="&lt;font face=&quot;Comic Sans MS&quot;&gt;&lt;b&gt;3&lt;/b&gt;&lt;/font&gt;" style="shape=partialRectangle;html=1;whiteSpace=wrap;connectable=0;fillColor=#f0a30a;top=0;left=0;bottom=0;right=0;overflow=hidden;strokeColor=#BD7000;fontSize=16;sketch=1;hachureGap=4;jiggle=2;curveFitting=1;fontFamily=Architects Daughter;fontSource=https%3A%2F%2Ffonts.googleapis.com%2Fcss%3Ffamily%3DArchitects%2BDaughter;fontColor=#000000;" vertex="1" parent="SeW6sfpvjPIFp4UaxVlG-15">
          <mxGeometry width="51" height="70" as="geometry">
            <mxRectangle width="51" height="70" as="alternateBounds" />
          </mxGeometry>
        </mxCell>
        <mxCell id="SeW6sfpvjPIFp4UaxVlG-17" value="&lt;b&gt;&lt;font face=&quot;Comic Sans MS&quot;&gt;live_type_infos: Vec&amp;lt;LiveTypeInfo&amp;gt;&lt;/font&gt;&lt;/b&gt;" style="shape=partialRectangle;html=1;whiteSpace=wrap;connectable=0;fillColor=#f0a30a;top=0;left=0;bottom=0;right=0;align=left;spacingLeft=6;overflow=hidden;strokeColor=#BD7000;fontSize=16;sketch=1;hachureGap=4;jiggle=2;curveFitting=1;fontFamily=Architects Daughter;fontSource=https%3A%2F%2Ffonts.googleapis.com%2Fcss%3Ffamily%3DArchitects%2BDaughter;fontColor=#000000;" vertex="1" parent="SeW6sfpvjPIFp4UaxVlG-15">
          <mxGeometry x="51" width="179" height="70" as="geometry">
            <mxRectangle width="179" height="70" as="alternateBounds" />
          </mxGeometry>
        </mxCell>
        <mxCell id="SeW6sfpvjPIFp4UaxVlG-174" style="edgeStyle=orthogonalEdgeStyle;rounded=0;sketch=1;hachureGap=4;jiggle=2;curveFitting=1;orthogonalLoop=1;jettySize=auto;html=1;entryX=0.5;entryY=0;entryDx=0;entryDy=0;fontFamily=Architects Daughter;fontSource=https%3A%2F%2Ffonts.googleapis.com%2Fcss%3Ffamily%3DArchitects%2BDaughter;curved=1;" edge="1" parent="1" source="SeW6sfpvjPIFp4UaxVlG-34" target="SeW6sfpvjPIFp4UaxVlG-171">
          <mxGeometry relative="1" as="geometry" />
        </mxCell>
        <mxCell id="SeW6sfpvjPIFp4UaxVlG-34" value="LiveTypeField" style="shape=table;startSize=30;container=1;collapsible=0;childLayout=tableLayout;fixedRows=1;rowLines=0;fontStyle=1;strokeColor=default;fontSize=16;sketch=1;hachureGap=4;jiggle=2;curveFitting=1;fontFamily=Comic Sans MS;" vertex="1" parent="1">
          <mxGeometry x="-1190" y="820" width="230" height="180" as="geometry" />
        </mxCell>
        <mxCell id="SeW6sfpvjPIFp4UaxVlG-35" value="" style="shape=tableRow;horizontal=0;startSize=0;swimlaneHead=0;swimlaneBody=0;top=0;left=0;bottom=0;right=0;collapsible=0;dropTarget=0;fillColor=none;points=[[0,0.5],[1,0.5]];portConstraint=eastwest;strokeColor=inherit;fontSize=16;sketch=1;hachureGap=4;jiggle=2;curveFitting=1;fontFamily=Architects Daughter;fontSource=https%3A%2F%2Ffonts.googleapis.com%2Fcss%3Ffamily%3DArchitects%2BDaughter;" vertex="1" parent="SeW6sfpvjPIFp4UaxVlG-34">
          <mxGeometry y="30" width="230" height="30" as="geometry" />
        </mxCell>
        <mxCell id="SeW6sfpvjPIFp4UaxVlG-36" value="&lt;font face=&quot;Comic Sans MS&quot;&gt;&lt;b&gt;1&lt;/b&gt;&lt;/font&gt;" style="shape=partialRectangle;html=1;whiteSpace=wrap;connectable=0;fillColor=none;top=0;left=0;bottom=0;right=0;overflow=hidden;pointerEvents=1;strokeColor=inherit;fontSize=16;sketch=1;hachureGap=4;jiggle=2;curveFitting=1;fontFamily=Architects Daughter;fontSource=https%3A%2F%2Ffonts.googleapis.com%2Fcss%3Ffamily%3DArchitects%2BDaughter;" vertex="1" parent="SeW6sfpvjPIFp4UaxVlG-35">
          <mxGeometry width="51" height="30" as="geometry">
            <mxRectangle width="51" height="30" as="alternateBounds" />
          </mxGeometry>
        </mxCell>
        <mxCell id="SeW6sfpvjPIFp4UaxVlG-37" value="&lt;font face=&quot;Comic Sans MS&quot;&gt;&lt;b&gt;id: LiveId&lt;/b&gt;&lt;/font&gt;" style="shape=partialRectangle;html=1;whiteSpace=wrap;connectable=0;fillColor=none;top=0;left=0;bottom=0;right=0;align=left;spacingLeft=6;overflow=hidden;strokeColor=inherit;fontSize=16;sketch=1;hachureGap=4;jiggle=2;curveFitting=1;fontFamily=Architects Daughter;fontSource=https%3A%2F%2Ffonts.googleapis.com%2Fcss%3Ffamily%3DArchitects%2BDaughter;" vertex="1" parent="SeW6sfpvjPIFp4UaxVlG-35">
          <mxGeometry x="51" width="179" height="30" as="geometry">
            <mxRectangle width="179" height="30" as="alternateBounds" />
          </mxGeometry>
        </mxCell>
        <mxCell id="SeW6sfpvjPIFp4UaxVlG-38" value="" style="shape=tableRow;horizontal=0;startSize=0;swimlaneHead=0;swimlaneBody=0;top=0;left=0;bottom=0;right=0;collapsible=0;dropTarget=0;fillColor=none;points=[[0,0.5],[1,0.5]];portConstraint=eastwest;strokeColor=inherit;fontSize=16;sketch=1;hachureGap=4;jiggle=2;curveFitting=1;fontFamily=Architects Daughter;fontSource=https%3A%2F%2Ffonts.googleapis.com%2Fcss%3Ffamily%3DArchitects%2BDaughter;" vertex="1" parent="SeW6sfpvjPIFp4UaxVlG-34">
          <mxGeometry y="60" width="230" height="50" as="geometry" />
        </mxCell>
        <mxCell id="SeW6sfpvjPIFp4UaxVlG-39" value="&lt;b&gt;&lt;font face=&quot;Comic Sans MS&quot;&gt;2&lt;/font&gt;&lt;/b&gt;" style="shape=partialRectangle;html=1;whiteSpace=wrap;connectable=0;fillColor=none;top=0;left=0;bottom=0;right=0;overflow=hidden;strokeColor=inherit;fontSize=16;sketch=1;hachureGap=4;jiggle=2;curveFitting=1;fontFamily=Architects Daughter;fontSource=https%3A%2F%2Ffonts.googleapis.com%2Fcss%3Ffamily%3DArchitects%2BDaughter;" vertex="1" parent="SeW6sfpvjPIFp4UaxVlG-38">
          <mxGeometry width="51" height="50" as="geometry">
            <mxRectangle width="51" height="50" as="alternateBounds" />
          </mxGeometry>
        </mxCell>
        <mxCell id="SeW6sfpvjPIFp4UaxVlG-40" value="&lt;b&gt;&lt;font face=&quot;Comic Sans MS&quot;&gt;live_field_kind: LiveFieldKind&lt;/font&gt;&lt;/b&gt;" style="shape=partialRectangle;html=1;whiteSpace=wrap;connectable=0;fillColor=none;top=0;left=0;bottom=0;right=0;align=left;spacingLeft=6;overflow=hidden;strokeColor=inherit;fontSize=16;sketch=1;hachureGap=4;jiggle=2;curveFitting=1;fontFamily=Architects Daughter;fontSource=https%3A%2F%2Ffonts.googleapis.com%2Fcss%3Ffamily%3DArchitects%2BDaughter;" vertex="1" parent="SeW6sfpvjPIFp4UaxVlG-38">
          <mxGeometry x="51" width="179" height="50" as="geometry">
            <mxRectangle width="179" height="50" as="alternateBounds" />
          </mxGeometry>
        </mxCell>
        <mxCell id="SeW6sfpvjPIFp4UaxVlG-41" value="" style="shape=tableRow;horizontal=0;startSize=0;swimlaneHead=0;swimlaneBody=0;top=0;left=0;bottom=0;right=0;collapsible=0;dropTarget=0;fillColor=none;points=[[0,0.5],[1,0.5]];portConstraint=eastwest;strokeColor=inherit;fontSize=16;sketch=1;hachureGap=4;jiggle=2;curveFitting=1;fontFamily=Architects Daughter;fontSource=https%3A%2F%2Ffonts.googleapis.com%2Fcss%3Ffamily%3DArchitects%2BDaughter;" vertex="1" parent="SeW6sfpvjPIFp4UaxVlG-34">
          <mxGeometry y="110" width="230" height="70" as="geometry" />
        </mxCell>
        <mxCell id="SeW6sfpvjPIFp4UaxVlG-42" value="&lt;b&gt;&lt;font face=&quot;Comic Sans MS&quot;&gt;3&lt;/font&gt;&lt;/b&gt;" style="shape=partialRectangle;html=1;whiteSpace=wrap;connectable=0;fillColor=#fa6800;top=0;left=0;bottom=0;right=0;overflow=hidden;strokeColor=#C73500;fontSize=16;sketch=1;hachureGap=4;jiggle=2;curveFitting=1;fontFamily=Architects Daughter;fontSource=https%3A%2F%2Ffonts.googleapis.com%2Fcss%3Ffamily%3DArchitects%2BDaughter;fontColor=#000000;" vertex="1" parent="SeW6sfpvjPIFp4UaxVlG-41">
          <mxGeometry width="51" height="70" as="geometry">
            <mxRectangle width="51" height="70" as="alternateBounds" />
          </mxGeometry>
        </mxCell>
        <mxCell id="SeW6sfpvjPIFp4UaxVlG-43" value="&lt;b&gt;&lt;font face=&quot;Comic Sans MS&quot;&gt;live_type_info: LiveTypeInfo&lt;/font&gt;&lt;/b&gt;" style="shape=partialRectangle;html=1;whiteSpace=wrap;connectable=0;fillColor=#fa6800;top=0;left=0;bottom=0;right=0;align=left;spacingLeft=6;overflow=hidden;strokeColor=#C73500;fontSize=16;sketch=1;hachureGap=4;jiggle=2;curveFitting=1;fontFamily=Architects Daughter;fontSource=https%3A%2F%2Ffonts.googleapis.com%2Fcss%3Ffamily%3DArchitects%2BDaughter;fontColor=#000000;" vertex="1" parent="SeW6sfpvjPIFp4UaxVlG-41">
          <mxGeometry x="51" width="179" height="70" as="geometry">
            <mxRectangle width="179" height="70" as="alternateBounds" />
          </mxGeometry>
        </mxCell>
        <mxCell id="SeW6sfpvjPIFp4UaxVlG-175" style="edgeStyle=orthogonalEdgeStyle;rounded=0;sketch=1;hachureGap=4;jiggle=2;curveFitting=1;orthogonalLoop=1;jettySize=auto;html=1;entryX=0.5;entryY=0;entryDx=0;entryDy=0;fontFamily=Architects Daughter;fontSource=https%3A%2F%2Ffonts.googleapis.com%2Fcss%3Ffamily%3DArchitects%2BDaughter;curved=1;" edge="1" parent="1" source="SeW6sfpvjPIFp4UaxVlG-76" target="SeW6sfpvjPIFp4UaxVlG-172">
          <mxGeometry relative="1" as="geometry" />
        </mxCell>
        <mxCell id="SeW6sfpvjPIFp4UaxVlG-76" value="LiveTypeField" style="shape=table;startSize=30;container=1;collapsible=0;childLayout=tableLayout;fixedRows=1;rowLines=0;fontStyle=1;strokeColor=default;fontSize=16;sketch=1;hachureGap=4;jiggle=2;curveFitting=1;fontFamily=Comic Sans MS;" vertex="1" parent="1">
          <mxGeometry x="-920" y="820" width="230" height="180" as="geometry" />
        </mxCell>
        <mxCell id="SeW6sfpvjPIFp4UaxVlG-77" value="" style="shape=tableRow;horizontal=0;startSize=0;swimlaneHead=0;swimlaneBody=0;top=0;left=0;bottom=0;right=0;collapsible=0;dropTarget=0;fillColor=none;points=[[0,0.5],[1,0.5]];portConstraint=eastwest;strokeColor=inherit;fontSize=16;sketch=1;hachureGap=4;jiggle=2;curveFitting=1;fontFamily=Architects Daughter;fontSource=https%3A%2F%2Ffonts.googleapis.com%2Fcss%3Ffamily%3DArchitects%2BDaughter;" vertex="1" parent="SeW6sfpvjPIFp4UaxVlG-76">
          <mxGeometry y="30" width="230" height="30" as="geometry" />
        </mxCell>
        <mxCell id="SeW6sfpvjPIFp4UaxVlG-78" value="&lt;font face=&quot;Comic Sans MS&quot;&gt;&lt;b&gt;1&lt;/b&gt;&lt;/font&gt;" style="shape=partialRectangle;html=1;whiteSpace=wrap;connectable=0;fillColor=none;top=0;left=0;bottom=0;right=0;overflow=hidden;pointerEvents=1;strokeColor=inherit;fontSize=16;sketch=1;hachureGap=4;jiggle=2;curveFitting=1;fontFamily=Architects Daughter;fontSource=https%3A%2F%2Ffonts.googleapis.com%2Fcss%3Ffamily%3DArchitects%2BDaughter;" vertex="1" parent="SeW6sfpvjPIFp4UaxVlG-77">
          <mxGeometry width="51" height="30" as="geometry">
            <mxRectangle width="51" height="30" as="alternateBounds" />
          </mxGeometry>
        </mxCell>
        <mxCell id="SeW6sfpvjPIFp4UaxVlG-79" value="&lt;font face=&quot;Comic Sans MS&quot;&gt;&lt;b&gt;id: LiveId&lt;/b&gt;&lt;/font&gt;" style="shape=partialRectangle;html=1;whiteSpace=wrap;connectable=0;fillColor=none;top=0;left=0;bottom=0;right=0;align=left;spacingLeft=6;overflow=hidden;strokeColor=inherit;fontSize=16;sketch=1;hachureGap=4;jiggle=2;curveFitting=1;fontFamily=Architects Daughter;fontSource=https%3A%2F%2Ffonts.googleapis.com%2Fcss%3Ffamily%3DArchitects%2BDaughter;" vertex="1" parent="SeW6sfpvjPIFp4UaxVlG-77">
          <mxGeometry x="51" width="179" height="30" as="geometry">
            <mxRectangle width="179" height="30" as="alternateBounds" />
          </mxGeometry>
        </mxCell>
        <mxCell id="SeW6sfpvjPIFp4UaxVlG-80" value="" style="shape=tableRow;horizontal=0;startSize=0;swimlaneHead=0;swimlaneBody=0;top=0;left=0;bottom=0;right=0;collapsible=0;dropTarget=0;fillColor=none;points=[[0,0.5],[1,0.5]];portConstraint=eastwest;strokeColor=inherit;fontSize=16;sketch=1;hachureGap=4;jiggle=2;curveFitting=1;fontFamily=Architects Daughter;fontSource=https%3A%2F%2Ffonts.googleapis.com%2Fcss%3Ffamily%3DArchitects%2BDaughter;" vertex="1" parent="SeW6sfpvjPIFp4UaxVlG-76">
          <mxGeometry y="60" width="230" height="50" as="geometry" />
        </mxCell>
        <mxCell id="SeW6sfpvjPIFp4UaxVlG-81" value="&lt;b&gt;&lt;font face=&quot;Comic Sans MS&quot;&gt;2&lt;/font&gt;&lt;/b&gt;" style="shape=partialRectangle;html=1;whiteSpace=wrap;connectable=0;fillColor=none;top=0;left=0;bottom=0;right=0;overflow=hidden;strokeColor=inherit;fontSize=16;sketch=1;hachureGap=4;jiggle=2;curveFitting=1;fontFamily=Architects Daughter;fontSource=https%3A%2F%2Ffonts.googleapis.com%2Fcss%3Ffamily%3DArchitects%2BDaughter;" vertex="1" parent="SeW6sfpvjPIFp4UaxVlG-80">
          <mxGeometry width="51" height="50" as="geometry">
            <mxRectangle width="51" height="50" as="alternateBounds" />
          </mxGeometry>
        </mxCell>
        <mxCell id="SeW6sfpvjPIFp4UaxVlG-82" value="&lt;b&gt;&lt;font face=&quot;Comic Sans MS&quot;&gt;live_field_kind: LiveFieldKind&lt;/font&gt;&lt;/b&gt;" style="shape=partialRectangle;html=1;whiteSpace=wrap;connectable=0;fillColor=none;top=0;left=0;bottom=0;right=0;align=left;spacingLeft=6;overflow=hidden;strokeColor=inherit;fontSize=16;sketch=1;hachureGap=4;jiggle=2;curveFitting=1;fontFamily=Architects Daughter;fontSource=https%3A%2F%2Ffonts.googleapis.com%2Fcss%3Ffamily%3DArchitects%2BDaughter;" vertex="1" parent="SeW6sfpvjPIFp4UaxVlG-80">
          <mxGeometry x="51" width="179" height="50" as="geometry">
            <mxRectangle width="179" height="50" as="alternateBounds" />
          </mxGeometry>
        </mxCell>
        <mxCell id="SeW6sfpvjPIFp4UaxVlG-83" value="" style="shape=tableRow;horizontal=0;startSize=0;swimlaneHead=0;swimlaneBody=0;top=0;left=0;bottom=0;right=0;collapsible=0;dropTarget=0;fillColor=none;points=[[0,0.5],[1,0.5]];portConstraint=eastwest;strokeColor=inherit;fontSize=16;sketch=1;hachureGap=4;jiggle=2;curveFitting=1;fontFamily=Architects Daughter;fontSource=https%3A%2F%2Ffonts.googleapis.com%2Fcss%3Ffamily%3DArchitects%2BDaughter;" vertex="1" parent="SeW6sfpvjPIFp4UaxVlG-76">
          <mxGeometry y="110" width="230" height="70" as="geometry" />
        </mxCell>
        <mxCell id="SeW6sfpvjPIFp4UaxVlG-84" value="&lt;b&gt;&lt;font face=&quot;Comic Sans MS&quot;&gt;3&lt;/font&gt;&lt;/b&gt;" style="shape=partialRectangle;html=1;whiteSpace=wrap;connectable=0;fillColor=#fa6800;top=0;left=0;bottom=0;right=0;overflow=hidden;strokeColor=#C73500;fontSize=16;sketch=1;hachureGap=4;jiggle=2;curveFitting=1;fontFamily=Architects Daughter;fontSource=https%3A%2F%2Ffonts.googleapis.com%2Fcss%3Ffamily%3DArchitects%2BDaughter;fontColor=#000000;" vertex="1" parent="SeW6sfpvjPIFp4UaxVlG-83">
          <mxGeometry width="51" height="70" as="geometry">
            <mxRectangle width="51" height="70" as="alternateBounds" />
          </mxGeometry>
        </mxCell>
        <mxCell id="SeW6sfpvjPIFp4UaxVlG-85" value="&lt;b&gt;&lt;font face=&quot;Comic Sans MS&quot;&gt;live_type_info: LiveTypeInfo&lt;/font&gt;&lt;/b&gt;" style="shape=partialRectangle;html=1;whiteSpace=wrap;connectable=0;fillColor=#fa6800;top=0;left=0;bottom=0;right=0;align=left;spacingLeft=6;overflow=hidden;strokeColor=#C73500;fontSize=16;sketch=1;hachureGap=4;jiggle=2;curveFitting=1;fontFamily=Architects Daughter;fontSource=https%3A%2F%2Ffonts.googleapis.com%2Fcss%3Ffamily%3DArchitects%2BDaughter;fontColor=#000000;" vertex="1" parent="SeW6sfpvjPIFp4UaxVlG-83">
          <mxGeometry x="51" width="179" height="70" as="geometry">
            <mxRectangle width="179" height="70" as="alternateBounds" />
          </mxGeometry>
        </mxCell>
        <mxCell id="SeW6sfpvjPIFp4UaxVlG-176" style="edgeStyle=orthogonalEdgeStyle;rounded=0;sketch=1;hachureGap=4;jiggle=2;curveFitting=1;orthogonalLoop=1;jettySize=auto;html=1;entryX=0.5;entryY=0;entryDx=0;entryDy=0;fontFamily=Architects Daughter;fontSource=https%3A%2F%2Ffonts.googleapis.com%2Fcss%3Ffamily%3DArchitects%2BDaughter;curved=1;" edge="1" parent="1" source="SeW6sfpvjPIFp4UaxVlG-86" target="SeW6sfpvjPIFp4UaxVlG-173">
          <mxGeometry relative="1" as="geometry" />
        </mxCell>
        <mxCell id="SeW6sfpvjPIFp4UaxVlG-86" value="LiveTypeField" style="shape=table;startSize=30;container=1;collapsible=0;childLayout=tableLayout;fixedRows=1;rowLines=0;fontStyle=1;strokeColor=default;fontSize=16;sketch=1;hachureGap=4;jiggle=2;curveFitting=1;fontFamily=Comic Sans MS;" vertex="1" parent="1">
          <mxGeometry x="-650" y="820" width="230" height="180" as="geometry" />
        </mxCell>
        <mxCell id="SeW6sfpvjPIFp4UaxVlG-87" value="" style="shape=tableRow;horizontal=0;startSize=0;swimlaneHead=0;swimlaneBody=0;top=0;left=0;bottom=0;right=0;collapsible=0;dropTarget=0;fillColor=none;points=[[0,0.5],[1,0.5]];portConstraint=eastwest;strokeColor=inherit;fontSize=16;sketch=1;hachureGap=4;jiggle=2;curveFitting=1;fontFamily=Architects Daughter;fontSource=https%3A%2F%2Ffonts.googleapis.com%2Fcss%3Ffamily%3DArchitects%2BDaughter;" vertex="1" parent="SeW6sfpvjPIFp4UaxVlG-86">
          <mxGeometry y="30" width="230" height="30" as="geometry" />
        </mxCell>
        <mxCell id="SeW6sfpvjPIFp4UaxVlG-88" value="&lt;font face=&quot;Comic Sans MS&quot;&gt;&lt;b&gt;1&lt;/b&gt;&lt;/font&gt;" style="shape=partialRectangle;html=1;whiteSpace=wrap;connectable=0;fillColor=none;top=0;left=0;bottom=0;right=0;overflow=hidden;pointerEvents=1;strokeColor=inherit;fontSize=16;sketch=1;hachureGap=4;jiggle=2;curveFitting=1;fontFamily=Architects Daughter;fontSource=https%3A%2F%2Ffonts.googleapis.com%2Fcss%3Ffamily%3DArchitects%2BDaughter;" vertex="1" parent="SeW6sfpvjPIFp4UaxVlG-87">
          <mxGeometry width="51" height="30" as="geometry">
            <mxRectangle width="51" height="30" as="alternateBounds" />
          </mxGeometry>
        </mxCell>
        <mxCell id="SeW6sfpvjPIFp4UaxVlG-89" value="&lt;font face=&quot;Comic Sans MS&quot;&gt;&lt;b&gt;id: LiveId&lt;/b&gt;&lt;/font&gt;" style="shape=partialRectangle;html=1;whiteSpace=wrap;connectable=0;fillColor=none;top=0;left=0;bottom=0;right=0;align=left;spacingLeft=6;overflow=hidden;strokeColor=inherit;fontSize=16;sketch=1;hachureGap=4;jiggle=2;curveFitting=1;fontFamily=Architects Daughter;fontSource=https%3A%2F%2Ffonts.googleapis.com%2Fcss%3Ffamily%3DArchitects%2BDaughter;" vertex="1" parent="SeW6sfpvjPIFp4UaxVlG-87">
          <mxGeometry x="51" width="179" height="30" as="geometry">
            <mxRectangle width="179" height="30" as="alternateBounds" />
          </mxGeometry>
        </mxCell>
        <mxCell id="SeW6sfpvjPIFp4UaxVlG-90" value="" style="shape=tableRow;horizontal=0;startSize=0;swimlaneHead=0;swimlaneBody=0;top=0;left=0;bottom=0;right=0;collapsible=0;dropTarget=0;fillColor=none;points=[[0,0.5],[1,0.5]];portConstraint=eastwest;strokeColor=inherit;fontSize=16;sketch=1;hachureGap=4;jiggle=2;curveFitting=1;fontFamily=Architects Daughter;fontSource=https%3A%2F%2Ffonts.googleapis.com%2Fcss%3Ffamily%3DArchitects%2BDaughter;" vertex="1" parent="SeW6sfpvjPIFp4UaxVlG-86">
          <mxGeometry y="60" width="230" height="50" as="geometry" />
        </mxCell>
        <mxCell id="SeW6sfpvjPIFp4UaxVlG-91" value="&lt;b&gt;&lt;font face=&quot;Comic Sans MS&quot;&gt;2&lt;/font&gt;&lt;/b&gt;" style="shape=partialRectangle;html=1;whiteSpace=wrap;connectable=0;fillColor=none;top=0;left=0;bottom=0;right=0;overflow=hidden;strokeColor=inherit;fontSize=16;sketch=1;hachureGap=4;jiggle=2;curveFitting=1;fontFamily=Architects Daughter;fontSource=https%3A%2F%2Ffonts.googleapis.com%2Fcss%3Ffamily%3DArchitects%2BDaughter;" vertex="1" parent="SeW6sfpvjPIFp4UaxVlG-90">
          <mxGeometry width="51" height="50" as="geometry">
            <mxRectangle width="51" height="50" as="alternateBounds" />
          </mxGeometry>
        </mxCell>
        <mxCell id="SeW6sfpvjPIFp4UaxVlG-92" value="&lt;b&gt;&lt;font face=&quot;Comic Sans MS&quot;&gt;live_field_kind: LiveFieldKind&lt;/font&gt;&lt;/b&gt;" style="shape=partialRectangle;html=1;whiteSpace=wrap;connectable=0;fillColor=none;top=0;left=0;bottom=0;right=0;align=left;spacingLeft=6;overflow=hidden;strokeColor=inherit;fontSize=16;sketch=1;hachureGap=4;jiggle=2;curveFitting=1;fontFamily=Architects Daughter;fontSource=https%3A%2F%2Ffonts.googleapis.com%2Fcss%3Ffamily%3DArchitects%2BDaughter;" vertex="1" parent="SeW6sfpvjPIFp4UaxVlG-90">
          <mxGeometry x="51" width="179" height="50" as="geometry">
            <mxRectangle width="179" height="50" as="alternateBounds" />
          </mxGeometry>
        </mxCell>
        <mxCell id="SeW6sfpvjPIFp4UaxVlG-93" value="" style="shape=tableRow;horizontal=0;startSize=0;swimlaneHead=0;swimlaneBody=0;top=0;left=0;bottom=0;right=0;collapsible=0;dropTarget=0;fillColor=none;points=[[0,0.5],[1,0.5]];portConstraint=eastwest;strokeColor=inherit;fontSize=16;sketch=1;hachureGap=4;jiggle=2;curveFitting=1;fontFamily=Architects Daughter;fontSource=https%3A%2F%2Ffonts.googleapis.com%2Fcss%3Ffamily%3DArchitects%2BDaughter;" vertex="1" parent="SeW6sfpvjPIFp4UaxVlG-86">
          <mxGeometry y="110" width="230" height="70" as="geometry" />
        </mxCell>
        <mxCell id="SeW6sfpvjPIFp4UaxVlG-94" value="&lt;b&gt;&lt;font face=&quot;Comic Sans MS&quot;&gt;3&lt;/font&gt;&lt;/b&gt;" style="shape=partialRectangle;html=1;whiteSpace=wrap;connectable=0;fillColor=#fa6800;top=0;left=0;bottom=0;right=0;overflow=hidden;strokeColor=#C73500;fontSize=16;sketch=1;hachureGap=4;jiggle=2;curveFitting=1;fontFamily=Architects Daughter;fontSource=https%3A%2F%2Ffonts.googleapis.com%2Fcss%3Ffamily%3DArchitects%2BDaughter;fontColor=#000000;" vertex="1" parent="SeW6sfpvjPIFp4UaxVlG-93">
          <mxGeometry width="51" height="70" as="geometry">
            <mxRectangle width="51" height="70" as="alternateBounds" />
          </mxGeometry>
        </mxCell>
        <mxCell id="SeW6sfpvjPIFp4UaxVlG-95" value="&lt;b&gt;&lt;font face=&quot;Comic Sans MS&quot;&gt;live_type_info: LiveTypeInfo&lt;/font&gt;&lt;/b&gt;" style="shape=partialRectangle;html=1;whiteSpace=wrap;connectable=0;fillColor=#fa6800;top=0;left=0;bottom=0;right=0;align=left;spacingLeft=6;overflow=hidden;strokeColor=#C73500;fontSize=16;sketch=1;hachureGap=4;jiggle=2;curveFitting=1;fontFamily=Architects Daughter;fontSource=https%3A%2F%2Ffonts.googleapis.com%2Fcss%3Ffamily%3DArchitects%2BDaughter;fontColor=#000000;" vertex="1" parent="SeW6sfpvjPIFp4UaxVlG-93">
          <mxGeometry x="51" width="179" height="70" as="geometry">
            <mxRectangle width="179" height="70" as="alternateBounds" />
          </mxGeometry>
        </mxCell>
        <mxCell id="SeW6sfpvjPIFp4UaxVlG-97" value="fields:Vec&amp;lt;LiveTypeField&amp;gt;" style="text;html=1;align=center;verticalAlign=middle;whiteSpace=wrap;rounded=0;fontFamily=Comic Sans MS;fontSize=15;fontStyle=1" vertex="1" parent="1">
          <mxGeometry x="-1210" y="740" width="210" height="30" as="geometry" />
        </mxCell>
        <mxCell id="SeW6sfpvjPIFp4UaxVlG-98" value="" style="group" vertex="1" connectable="0" parent="1">
          <mxGeometry x="-587.25" y="345" width="1000" height="325" as="geometry" />
        </mxCell>
        <mxCell id="SeW6sfpvjPIFp4UaxVlG-68" value="" style="rounded=0;whiteSpace=wrap;html=1;sketch=1;hachureGap=4;jiggle=2;curveFitting=1;fontFamily=Architects Daughter;fontSource=https%3A%2F%2Ffonts.googleapis.com%2Fcss%3Ffamily%3DArchitects%2BDaughter;" vertex="1" parent="SeW6sfpvjPIFp4UaxVlG-98">
          <mxGeometry width="1000" height="325" as="geometry" />
        </mxCell>
        <mxCell id="SeW6sfpvjPIFp4UaxVlG-18" value="LiveTypeInfo" style="shape=table;startSize=30;container=1;collapsible=0;childLayout=tableLayout;fixedRows=1;rowLines=0;fontStyle=1;strokeColor=default;fontSize=16;sketch=1;hachureGap=4;jiggle=2;curveFitting=1;fontFamily=Comic Sans MS;" vertex="1" parent="SeW6sfpvjPIFp4UaxVlG-98">
          <mxGeometry x="47.25" y="65" width="230" height="240" as="geometry" />
        </mxCell>
        <mxCell id="SeW6sfpvjPIFp4UaxVlG-19" value="" style="shape=tableRow;horizontal=0;startSize=0;swimlaneHead=0;swimlaneBody=0;top=0;left=0;bottom=0;right=0;collapsible=0;dropTarget=0;fillColor=none;points=[[0,0.5],[1,0.5]];portConstraint=eastwest;strokeColor=inherit;fontSize=16;sketch=1;hachureGap=4;jiggle=2;curveFitting=1;fontFamily=Architects Daughter;fontSource=https%3A%2F%2Ffonts.googleapis.com%2Fcss%3Ffamily%3DArchitects%2BDaughter;" vertex="1" parent="SeW6sfpvjPIFp4UaxVlG-18">
          <mxGeometry y="30" width="230" height="30" as="geometry" />
        </mxCell>
        <mxCell id="SeW6sfpvjPIFp4UaxVlG-20" value="&lt;font face=&quot;Comic Sans MS&quot;&gt;&lt;b&gt;1&lt;/b&gt;&lt;/font&gt;" style="shape=partialRectangle;html=1;whiteSpace=wrap;connectable=0;fillColor=none;top=0;left=0;bottom=0;right=0;overflow=hidden;pointerEvents=1;strokeColor=inherit;fontSize=16;sketch=1;hachureGap=4;jiggle=2;curveFitting=1;fontFamily=Architects Daughter;fontSource=https%3A%2F%2Ffonts.googleapis.com%2Fcss%3Ffamily%3DArchitects%2BDaughter;" vertex="1" parent="SeW6sfpvjPIFp4UaxVlG-19">
          <mxGeometry width="51" height="30" as="geometry">
            <mxRectangle width="51" height="30" as="alternateBounds" />
          </mxGeometry>
        </mxCell>
        <mxCell id="SeW6sfpvjPIFp4UaxVlG-21" value="&lt;b&gt;&lt;font face=&quot;Comic Sans MS&quot;&gt;live_type: LiveType&lt;/font&gt;&lt;/b&gt;" style="shape=partialRectangle;html=1;whiteSpace=wrap;connectable=0;fillColor=none;top=0;left=0;bottom=0;right=0;align=left;spacingLeft=6;overflow=hidden;strokeColor=inherit;fontSize=16;sketch=1;hachureGap=4;jiggle=2;curveFitting=1;fontFamily=Architects Daughter;fontSource=https%3A%2F%2Ffonts.googleapis.com%2Fcss%3Ffamily%3DArchitects%2BDaughter;" vertex="1" parent="SeW6sfpvjPIFp4UaxVlG-19">
          <mxGeometry x="51" width="179" height="30" as="geometry">
            <mxRectangle width="179" height="30" as="alternateBounds" />
          </mxGeometry>
        </mxCell>
        <mxCell id="SeW6sfpvjPIFp4UaxVlG-22" value="" style="shape=tableRow;horizontal=0;startSize=0;swimlaneHead=0;swimlaneBody=0;top=0;left=0;bottom=0;right=0;collapsible=0;dropTarget=0;fillColor=none;points=[[0,0.5],[1,0.5]];portConstraint=eastwest;strokeColor=inherit;fontSize=16;sketch=1;hachureGap=4;jiggle=2;curveFitting=1;fontFamily=Architects Daughter;fontSource=https%3A%2F%2Ffonts.googleapis.com%2Fcss%3Ffamily%3DArchitects%2BDaughter;" vertex="1" parent="SeW6sfpvjPIFp4UaxVlG-18">
          <mxGeometry y="60" width="230" height="30" as="geometry" />
        </mxCell>
        <mxCell id="SeW6sfpvjPIFp4UaxVlG-23" value="&lt;b&gt;&lt;font face=&quot;Comic Sans MS&quot;&gt;2&lt;/font&gt;&lt;/b&gt;" style="shape=partialRectangle;html=1;whiteSpace=wrap;connectable=0;fillColor=none;top=0;left=0;bottom=0;right=0;overflow=hidden;strokeColor=inherit;fontSize=16;sketch=1;hachureGap=4;jiggle=2;curveFitting=1;fontFamily=Architects Daughter;fontSource=https%3A%2F%2Ffonts.googleapis.com%2Fcss%3Ffamily%3DArchitects%2BDaughter;" vertex="1" parent="SeW6sfpvjPIFp4UaxVlG-22">
          <mxGeometry width="51" height="30" as="geometry">
            <mxRectangle width="51" height="30" as="alternateBounds" />
          </mxGeometry>
        </mxCell>
        <mxCell id="SeW6sfpvjPIFp4UaxVlG-24" value="&lt;b&gt;&lt;font face=&quot;Comic Sans MS&quot;&gt;type_name: LiveId&lt;/font&gt;&lt;/b&gt;" style="shape=partialRectangle;html=1;whiteSpace=wrap;connectable=0;fillColor=none;top=0;left=0;bottom=0;right=0;align=left;spacingLeft=6;overflow=hidden;strokeColor=inherit;fontSize=16;sketch=1;hachureGap=4;jiggle=2;curveFitting=1;fontFamily=Architects Daughter;fontSource=https%3A%2F%2Ffonts.googleapis.com%2Fcss%3Ffamily%3DArchitects%2BDaughter;" vertex="1" parent="SeW6sfpvjPIFp4UaxVlG-22">
          <mxGeometry x="51" width="179" height="30" as="geometry">
            <mxRectangle width="179" height="30" as="alternateBounds" />
          </mxGeometry>
        </mxCell>
        <mxCell id="SeW6sfpvjPIFp4UaxVlG-25" value="" style="shape=tableRow;horizontal=0;startSize=0;swimlaneHead=0;swimlaneBody=0;top=0;left=0;bottom=0;right=0;collapsible=0;dropTarget=0;fillColor=none;points=[[0,0.5],[1,0.5]];portConstraint=eastwest;strokeColor=inherit;fontSize=16;sketch=1;hachureGap=4;jiggle=2;curveFitting=1;fontFamily=Architects Daughter;fontSource=https%3A%2F%2Ffonts.googleapis.com%2Fcss%3Ffamily%3DArchitects%2BDaughter;" vertex="1" parent="SeW6sfpvjPIFp4UaxVlG-18">
          <mxGeometry y="90" width="230" height="50" as="geometry" />
        </mxCell>
        <mxCell id="SeW6sfpvjPIFp4UaxVlG-26" value="&lt;b&gt;&lt;font face=&quot;Comic Sans MS&quot;&gt;3&lt;/font&gt;&lt;/b&gt;" style="shape=partialRectangle;html=1;whiteSpace=wrap;connectable=0;fillColor=none;top=0;left=0;bottom=0;right=0;overflow=hidden;strokeColor=inherit;fontSize=16;sketch=1;hachureGap=4;jiggle=2;curveFitting=1;fontFamily=Architects Daughter;fontSource=https%3A%2F%2Ffonts.googleapis.com%2Fcss%3Ffamily%3DArchitects%2BDaughter;" vertex="1" parent="SeW6sfpvjPIFp4UaxVlG-25">
          <mxGeometry width="51" height="50" as="geometry">
            <mxRectangle width="51" height="50" as="alternateBounds" />
          </mxGeometry>
        </mxCell>
        <mxCell id="SeW6sfpvjPIFp4UaxVlG-27" value="&lt;b&gt;&lt;font face=&quot;Comic Sans MS&quot;&gt;module_id: LiveModuleId&lt;/font&gt;&lt;/b&gt;" style="shape=partialRectangle;html=1;whiteSpace=wrap;connectable=0;fillColor=none;top=0;left=0;bottom=0;right=0;align=left;spacingLeft=6;overflow=hidden;strokeColor=inherit;fontSize=16;sketch=1;hachureGap=4;jiggle=2;curveFitting=1;fontFamily=Architects Daughter;fontSource=https%3A%2F%2Ffonts.googleapis.com%2Fcss%3Ffamily%3DArchitects%2BDaughter;" vertex="1" parent="SeW6sfpvjPIFp4UaxVlG-25">
          <mxGeometry x="51" width="179" height="50" as="geometry">
            <mxRectangle width="179" height="50" as="alternateBounds" />
          </mxGeometry>
        </mxCell>
        <mxCell id="SeW6sfpvjPIFp4UaxVlG-28" style="shape=tableRow;horizontal=0;startSize=0;swimlaneHead=0;swimlaneBody=0;top=0;left=0;bottom=0;right=0;collapsible=0;dropTarget=0;fillColor=none;points=[[0,0.5],[1,0.5]];portConstraint=eastwest;strokeColor=inherit;fontSize=16;sketch=1;hachureGap=4;jiggle=2;curveFitting=1;fontFamily=Architects Daughter;fontSource=https%3A%2F%2Ffonts.googleapis.com%2Fcss%3Ffamily%3DArchitects%2BDaughter;" vertex="1" parent="SeW6sfpvjPIFp4UaxVlG-18">
          <mxGeometry y="140" width="230" height="40" as="geometry" />
        </mxCell>
        <mxCell id="SeW6sfpvjPIFp4UaxVlG-29" value="&lt;b&gt;&lt;font face=&quot;Comic Sans MS&quot;&gt;4&lt;/font&gt;&lt;/b&gt;" style="shape=partialRectangle;html=1;whiteSpace=wrap;connectable=0;fillColor=none;top=0;left=0;bottom=0;right=0;overflow=hidden;strokeColor=inherit;fontSize=16;sketch=1;hachureGap=4;jiggle=2;curveFitting=1;fontFamily=Architects Daughter;fontSource=https%3A%2F%2Ffonts.googleapis.com%2Fcss%3Ffamily%3DArchitects%2BDaughter;" vertex="1" parent="SeW6sfpvjPIFp4UaxVlG-28">
          <mxGeometry width="51" height="40" as="geometry">
            <mxRectangle width="51" height="40" as="alternateBounds" />
          </mxGeometry>
        </mxCell>
        <mxCell id="SeW6sfpvjPIFp4UaxVlG-30" value="&lt;b&gt;&lt;font face=&quot;Comic Sans MS&quot;&gt;live_ignore: bool&lt;/font&gt;&lt;/b&gt;" style="shape=partialRectangle;html=1;whiteSpace=wrap;connectable=0;fillColor=none;top=0;left=0;bottom=0;right=0;align=left;spacingLeft=6;overflow=hidden;strokeColor=inherit;fontSize=16;sketch=1;hachureGap=4;jiggle=2;curveFitting=1;fontFamily=Architects Daughter;fontSource=https%3A%2F%2Ffonts.googleapis.com%2Fcss%3Ffamily%3DArchitects%2BDaughter;" vertex="1" parent="SeW6sfpvjPIFp4UaxVlG-28">
          <mxGeometry x="51" width="179" height="40" as="geometry">
            <mxRectangle width="179" height="40" as="alternateBounds" />
          </mxGeometry>
        </mxCell>
        <mxCell id="SeW6sfpvjPIFp4UaxVlG-31" style="shape=tableRow;horizontal=0;startSize=0;swimlaneHead=0;swimlaneBody=0;top=0;left=0;bottom=0;right=0;collapsible=0;dropTarget=0;fillColor=none;points=[[0,0.5],[1,0.5]];portConstraint=eastwest;strokeColor=inherit;fontSize=16;sketch=1;hachureGap=4;jiggle=2;curveFitting=1;fontFamily=Comic Sans MS;fontStyle=1" vertex="1" parent="SeW6sfpvjPIFp4UaxVlG-18">
          <mxGeometry y="180" width="230" height="60" as="geometry" />
        </mxCell>
        <mxCell id="SeW6sfpvjPIFp4UaxVlG-32" value="&lt;b&gt;&lt;font face=&quot;Comic Sans MS&quot;&gt;5&lt;/font&gt;&lt;/b&gt;" style="shape=partialRectangle;html=1;whiteSpace=wrap;connectable=0;fillColor=#e3c800;top=0;left=0;bottom=0;right=0;overflow=hidden;strokeColor=#B09500;fontSize=16;sketch=1;hachureGap=4;jiggle=2;curveFitting=1;fontFamily=Architects Daughter;fontSource=https%3A%2F%2Ffonts.googleapis.com%2Fcss%3Ffamily%3DArchitects%2BDaughter;fontColor=#000000;" vertex="1" parent="SeW6sfpvjPIFp4UaxVlG-31">
          <mxGeometry width="51" height="60" as="geometry">
            <mxRectangle width="51" height="60" as="alternateBounds" />
          </mxGeometry>
        </mxCell>
        <mxCell id="SeW6sfpvjPIFp4UaxVlG-33" value="&lt;b&gt;&lt;font style=&quot;&quot; face=&quot;Comic Sans MS&quot;&gt;fields: Vec&amp;lt;LiveTypeField&amp;gt;&lt;/font&gt;&lt;/b&gt;" style="shape=partialRectangle;html=1;whiteSpace=wrap;connectable=0;fillColor=#e3c800;top=0;left=0;bottom=0;right=0;align=left;spacingLeft=6;overflow=hidden;strokeColor=#B09500;fontSize=16;sketch=1;hachureGap=4;jiggle=2;curveFitting=1;fontFamily=Architects Daughter;fontSource=https%3A%2F%2Ffonts.googleapis.com%2Fcss%3Ffamily%3DArchitects%2BDaughter;fontColor=#000000;" vertex="1" parent="SeW6sfpvjPIFp4UaxVlG-31">
          <mxGeometry x="51" width="179" height="60" as="geometry">
            <mxRectangle width="179" height="60" as="alternateBounds" />
          </mxGeometry>
        </mxCell>
        <mxCell id="SeW6sfpvjPIFp4UaxVlG-50" value="LiveTypeInfo" style="shape=table;startSize=30;container=1;collapsible=0;childLayout=tableLayout;fixedRows=1;rowLines=0;fontStyle=1;strokeColor=default;fontSize=16;sketch=1;hachureGap=4;jiggle=2;curveFitting=1;fontFamily=Comic Sans MS;" vertex="1" parent="SeW6sfpvjPIFp4UaxVlG-98">
          <mxGeometry x="387.25" y="65" width="230" height="240" as="geometry" />
        </mxCell>
        <mxCell id="SeW6sfpvjPIFp4UaxVlG-51" value="" style="shape=tableRow;horizontal=0;startSize=0;swimlaneHead=0;swimlaneBody=0;top=0;left=0;bottom=0;right=0;collapsible=0;dropTarget=0;fillColor=none;points=[[0,0.5],[1,0.5]];portConstraint=eastwest;strokeColor=inherit;fontSize=16;sketch=1;hachureGap=4;jiggle=2;curveFitting=1;fontFamily=Architects Daughter;fontSource=https%3A%2F%2Ffonts.googleapis.com%2Fcss%3Ffamily%3DArchitects%2BDaughter;" vertex="1" parent="SeW6sfpvjPIFp4UaxVlG-50">
          <mxGeometry y="30" width="230" height="30" as="geometry" />
        </mxCell>
        <mxCell id="SeW6sfpvjPIFp4UaxVlG-52" value="&lt;font face=&quot;Comic Sans MS&quot;&gt;&lt;b&gt;1&lt;/b&gt;&lt;/font&gt;" style="shape=partialRectangle;html=1;whiteSpace=wrap;connectable=0;fillColor=none;top=0;left=0;bottom=0;right=0;overflow=hidden;pointerEvents=1;strokeColor=inherit;fontSize=16;sketch=1;hachureGap=4;jiggle=2;curveFitting=1;fontFamily=Architects Daughter;fontSource=https%3A%2F%2Ffonts.googleapis.com%2Fcss%3Ffamily%3DArchitects%2BDaughter;" vertex="1" parent="SeW6sfpvjPIFp4UaxVlG-51">
          <mxGeometry width="51" height="30" as="geometry">
            <mxRectangle width="51" height="30" as="alternateBounds" />
          </mxGeometry>
        </mxCell>
        <mxCell id="SeW6sfpvjPIFp4UaxVlG-53" value="&lt;b&gt;&lt;font face=&quot;Comic Sans MS&quot;&gt;live_type: LiveType&lt;/font&gt;&lt;/b&gt;" style="shape=partialRectangle;html=1;whiteSpace=wrap;connectable=0;fillColor=none;top=0;left=0;bottom=0;right=0;align=left;spacingLeft=6;overflow=hidden;strokeColor=inherit;fontSize=16;sketch=1;hachureGap=4;jiggle=2;curveFitting=1;fontFamily=Architects Daughter;fontSource=https%3A%2F%2Ffonts.googleapis.com%2Fcss%3Ffamily%3DArchitects%2BDaughter;" vertex="1" parent="SeW6sfpvjPIFp4UaxVlG-51">
          <mxGeometry x="51" width="179" height="30" as="geometry">
            <mxRectangle width="179" height="30" as="alternateBounds" />
          </mxGeometry>
        </mxCell>
        <mxCell id="SeW6sfpvjPIFp4UaxVlG-54" value="" style="shape=tableRow;horizontal=0;startSize=0;swimlaneHead=0;swimlaneBody=0;top=0;left=0;bottom=0;right=0;collapsible=0;dropTarget=0;fillColor=none;points=[[0,0.5],[1,0.5]];portConstraint=eastwest;strokeColor=inherit;fontSize=16;sketch=1;hachureGap=4;jiggle=2;curveFitting=1;fontFamily=Architects Daughter;fontSource=https%3A%2F%2Ffonts.googleapis.com%2Fcss%3Ffamily%3DArchitects%2BDaughter;" vertex="1" parent="SeW6sfpvjPIFp4UaxVlG-50">
          <mxGeometry y="60" width="230" height="30" as="geometry" />
        </mxCell>
        <mxCell id="SeW6sfpvjPIFp4UaxVlG-55" value="&lt;b&gt;&lt;font face=&quot;Comic Sans MS&quot;&gt;2&lt;/font&gt;&lt;/b&gt;" style="shape=partialRectangle;html=1;whiteSpace=wrap;connectable=0;fillColor=none;top=0;left=0;bottom=0;right=0;overflow=hidden;strokeColor=inherit;fontSize=16;sketch=1;hachureGap=4;jiggle=2;curveFitting=1;fontFamily=Architects Daughter;fontSource=https%3A%2F%2Ffonts.googleapis.com%2Fcss%3Ffamily%3DArchitects%2BDaughter;" vertex="1" parent="SeW6sfpvjPIFp4UaxVlG-54">
          <mxGeometry width="51" height="30" as="geometry">
            <mxRectangle width="51" height="30" as="alternateBounds" />
          </mxGeometry>
        </mxCell>
        <mxCell id="SeW6sfpvjPIFp4UaxVlG-56" value="&lt;b&gt;&lt;font face=&quot;Comic Sans MS&quot;&gt;type_name: LiveId&lt;/font&gt;&lt;/b&gt;" style="shape=partialRectangle;html=1;whiteSpace=wrap;connectable=0;fillColor=none;top=0;left=0;bottom=0;right=0;align=left;spacingLeft=6;overflow=hidden;strokeColor=inherit;fontSize=16;sketch=1;hachureGap=4;jiggle=2;curveFitting=1;fontFamily=Architects Daughter;fontSource=https%3A%2F%2Ffonts.googleapis.com%2Fcss%3Ffamily%3DArchitects%2BDaughter;" vertex="1" parent="SeW6sfpvjPIFp4UaxVlG-54">
          <mxGeometry x="51" width="179" height="30" as="geometry">
            <mxRectangle width="179" height="30" as="alternateBounds" />
          </mxGeometry>
        </mxCell>
        <mxCell id="SeW6sfpvjPIFp4UaxVlG-57" value="" style="shape=tableRow;horizontal=0;startSize=0;swimlaneHead=0;swimlaneBody=0;top=0;left=0;bottom=0;right=0;collapsible=0;dropTarget=0;fillColor=none;points=[[0,0.5],[1,0.5]];portConstraint=eastwest;strokeColor=inherit;fontSize=16;sketch=1;hachureGap=4;jiggle=2;curveFitting=1;fontFamily=Architects Daughter;fontSource=https%3A%2F%2Ffonts.googleapis.com%2Fcss%3Ffamily%3DArchitects%2BDaughter;" vertex="1" parent="SeW6sfpvjPIFp4UaxVlG-50">
          <mxGeometry y="90" width="230" height="50" as="geometry" />
        </mxCell>
        <mxCell id="SeW6sfpvjPIFp4UaxVlG-58" value="&lt;b&gt;&lt;font face=&quot;Comic Sans MS&quot;&gt;3&lt;/font&gt;&lt;/b&gt;" style="shape=partialRectangle;html=1;whiteSpace=wrap;connectable=0;fillColor=none;top=0;left=0;bottom=0;right=0;overflow=hidden;strokeColor=inherit;fontSize=16;sketch=1;hachureGap=4;jiggle=2;curveFitting=1;fontFamily=Architects Daughter;fontSource=https%3A%2F%2Ffonts.googleapis.com%2Fcss%3Ffamily%3DArchitects%2BDaughter;" vertex="1" parent="SeW6sfpvjPIFp4UaxVlG-57">
          <mxGeometry width="51" height="50" as="geometry">
            <mxRectangle width="51" height="50" as="alternateBounds" />
          </mxGeometry>
        </mxCell>
        <mxCell id="SeW6sfpvjPIFp4UaxVlG-59" value="&lt;b&gt;&lt;font face=&quot;Comic Sans MS&quot;&gt;module_id: LiveModuleId&lt;/font&gt;&lt;/b&gt;" style="shape=partialRectangle;html=1;whiteSpace=wrap;connectable=0;fillColor=none;top=0;left=0;bottom=0;right=0;align=left;spacingLeft=6;overflow=hidden;strokeColor=inherit;fontSize=16;sketch=1;hachureGap=4;jiggle=2;curveFitting=1;fontFamily=Architects Daughter;fontSource=https%3A%2F%2Ffonts.googleapis.com%2Fcss%3Ffamily%3DArchitects%2BDaughter;" vertex="1" parent="SeW6sfpvjPIFp4UaxVlG-57">
          <mxGeometry x="51" width="179" height="50" as="geometry">
            <mxRectangle width="179" height="50" as="alternateBounds" />
          </mxGeometry>
        </mxCell>
        <mxCell id="SeW6sfpvjPIFp4UaxVlG-60" style="shape=tableRow;horizontal=0;startSize=0;swimlaneHead=0;swimlaneBody=0;top=0;left=0;bottom=0;right=0;collapsible=0;dropTarget=0;fillColor=none;points=[[0,0.5],[1,0.5]];portConstraint=eastwest;strokeColor=inherit;fontSize=16;sketch=1;hachureGap=4;jiggle=2;curveFitting=1;fontFamily=Architects Daughter;fontSource=https%3A%2F%2Ffonts.googleapis.com%2Fcss%3Ffamily%3DArchitects%2BDaughter;" vertex="1" parent="SeW6sfpvjPIFp4UaxVlG-50">
          <mxGeometry y="140" width="230" height="40" as="geometry" />
        </mxCell>
        <mxCell id="SeW6sfpvjPIFp4UaxVlG-61" value="&lt;b&gt;&lt;font face=&quot;Comic Sans MS&quot;&gt;4&lt;/font&gt;&lt;/b&gt;" style="shape=partialRectangle;html=1;whiteSpace=wrap;connectable=0;fillColor=none;top=0;left=0;bottom=0;right=0;overflow=hidden;strokeColor=inherit;fontSize=16;sketch=1;hachureGap=4;jiggle=2;curveFitting=1;fontFamily=Architects Daughter;fontSource=https%3A%2F%2Ffonts.googleapis.com%2Fcss%3Ffamily%3DArchitects%2BDaughter;" vertex="1" parent="SeW6sfpvjPIFp4UaxVlG-60">
          <mxGeometry width="51" height="40" as="geometry">
            <mxRectangle width="51" height="40" as="alternateBounds" />
          </mxGeometry>
        </mxCell>
        <mxCell id="SeW6sfpvjPIFp4UaxVlG-62" value="&lt;b&gt;&lt;font face=&quot;Comic Sans MS&quot;&gt;live_ignore: bool&lt;/font&gt;&lt;/b&gt;" style="shape=partialRectangle;html=1;whiteSpace=wrap;connectable=0;fillColor=none;top=0;left=0;bottom=0;right=0;align=left;spacingLeft=6;overflow=hidden;strokeColor=inherit;fontSize=16;sketch=1;hachureGap=4;jiggle=2;curveFitting=1;fontFamily=Architects Daughter;fontSource=https%3A%2F%2Ffonts.googleapis.com%2Fcss%3Ffamily%3DArchitects%2BDaughter;" vertex="1" parent="SeW6sfpvjPIFp4UaxVlG-60">
          <mxGeometry x="51" width="179" height="40" as="geometry">
            <mxRectangle width="179" height="40" as="alternateBounds" />
          </mxGeometry>
        </mxCell>
        <mxCell id="SeW6sfpvjPIFp4UaxVlG-63" style="shape=tableRow;horizontal=0;startSize=0;swimlaneHead=0;swimlaneBody=0;top=0;left=0;bottom=0;right=0;collapsible=0;dropTarget=0;fillColor=none;points=[[0,0.5],[1,0.5]];portConstraint=eastwest;strokeColor=inherit;fontSize=16;sketch=1;hachureGap=4;jiggle=2;curveFitting=1;fontFamily=Comic Sans MS;fontStyle=1" vertex="1" parent="SeW6sfpvjPIFp4UaxVlG-50">
          <mxGeometry y="180" width="230" height="60" as="geometry" />
        </mxCell>
        <mxCell id="SeW6sfpvjPIFp4UaxVlG-64" value="&lt;b&gt;&lt;font face=&quot;Comic Sans MS&quot;&gt;5&lt;/font&gt;&lt;/b&gt;" style="shape=partialRectangle;html=1;whiteSpace=wrap;connectable=0;fillColor=#e3c800;top=0;left=0;bottom=0;right=0;overflow=hidden;strokeColor=#B09500;fontSize=16;sketch=1;hachureGap=4;jiggle=2;curveFitting=1;fontFamily=Architects Daughter;fontSource=https%3A%2F%2Ffonts.googleapis.com%2Fcss%3Ffamily%3DArchitects%2BDaughter;fontColor=#000000;" vertex="1" parent="SeW6sfpvjPIFp4UaxVlG-63">
          <mxGeometry width="51" height="60" as="geometry">
            <mxRectangle width="51" height="60" as="alternateBounds" />
          </mxGeometry>
        </mxCell>
        <mxCell id="SeW6sfpvjPIFp4UaxVlG-65" value="&lt;b&gt;&lt;font style=&quot;&quot; face=&quot;Comic Sans MS&quot;&gt;fields: Vec&amp;lt;LiveTypeField&amp;gt;&lt;/font&gt;&lt;/b&gt;" style="shape=partialRectangle;html=1;whiteSpace=wrap;connectable=0;fillColor=#e3c800;top=0;left=0;bottom=0;right=0;align=left;spacingLeft=6;overflow=hidden;strokeColor=#B09500;fontSize=16;sketch=1;hachureGap=4;jiggle=2;curveFitting=1;fontFamily=Architects Daughter;fontSource=https%3A%2F%2Ffonts.googleapis.com%2Fcss%3Ffamily%3DArchitects%2BDaughter;fontColor=#000000;" vertex="1" parent="SeW6sfpvjPIFp4UaxVlG-63">
          <mxGeometry x="51" width="179" height="60" as="geometry">
            <mxRectangle width="179" height="60" as="alternateBounds" />
          </mxGeometry>
        </mxCell>
        <mxCell id="SeW6sfpvjPIFp4UaxVlG-69" value="live_type_infos:Vec&amp;lt;LiveTypeInfo&amp;gt;" style="text;html=1;align=center;verticalAlign=middle;whiteSpace=wrap;rounded=0;fontFamily=Comic Sans MS;fontSize=15;fontStyle=1" vertex="1" parent="SeW6sfpvjPIFp4UaxVlG-98">
          <mxGeometry y="5" width="257.25" height="30" as="geometry" />
        </mxCell>
        <mxCell id="SeW6sfpvjPIFp4UaxVlG-70" value="O" style="text;html=1;align=center;verticalAlign=middle;whiteSpace=wrap;rounded=0;fontFamily=Comic Sans MS;fontSize=16;fontStyle=1" vertex="1" parent="SeW6sfpvjPIFp4UaxVlG-98">
          <mxGeometry x="688.25" y="148" width="60" height="30" as="geometry" />
        </mxCell>
        <mxCell id="SeW6sfpvjPIFp4UaxVlG-71" value="O" style="text;html=1;align=center;verticalAlign=middle;whiteSpace=wrap;rounded=0;fontFamily=Comic Sans MS;fontSize=16;fontStyle=1" vertex="1" parent="SeW6sfpvjPIFp4UaxVlG-98">
          <mxGeometry x="777.25" y="148" width="60" height="30" as="geometry" />
        </mxCell>
        <mxCell id="SeW6sfpvjPIFp4UaxVlG-72" value="O" style="text;html=1;align=center;verticalAlign=middle;whiteSpace=wrap;rounded=0;fontFamily=Comic Sans MS;fontSize=16;fontStyle=1" vertex="1" parent="SeW6sfpvjPIFp4UaxVlG-98">
          <mxGeometry x="877.25" y="148" width="60" height="30" as="geometry" />
        </mxCell>
        <mxCell id="SeW6sfpvjPIFp4UaxVlG-99" value="O" style="text;html=1;align=center;verticalAlign=middle;whiteSpace=wrap;rounded=0;fontFamily=Comic Sans MS;fontSize=16;fontStyle=1" vertex="1" parent="1">
          <mxGeometry x="-410" y="890" width="60" height="30" as="geometry" />
        </mxCell>
        <mxCell id="SeW6sfpvjPIFp4UaxVlG-100" value="O" style="text;html=1;align=center;verticalAlign=middle;whiteSpace=wrap;rounded=0;fontFamily=Comic Sans MS;fontSize=16;fontStyle=1" vertex="1" parent="1">
          <mxGeometry x="-360" y="890" width="60" height="30" as="geometry" />
        </mxCell>
        <mxCell id="SeW6sfpvjPIFp4UaxVlG-101" value="O" style="text;html=1;align=center;verticalAlign=middle;whiteSpace=wrap;rounded=0;fontFamily=Comic Sans MS;fontSize=16;fontStyle=1" vertex="1" parent="1">
          <mxGeometry x="-316" y="890" width="60" height="30" as="geometry" />
        </mxCell>
        <mxCell id="SeW6sfpvjPIFp4UaxVlG-102" style="edgeStyle=orthogonalEdgeStyle;rounded=0;sketch=1;hachureGap=4;jiggle=2;curveFitting=1;orthogonalLoop=1;jettySize=auto;html=1;entryX=0.5;entryY=0;entryDx=0;entryDy=0;fontFamily=Architects Daughter;fontSource=https%3A%2F%2Ffonts.googleapis.com%2Fcss%3Ffamily%3DArchitects%2BDaughter;curved=1;exitX=0.265;exitY=1;exitDx=0;exitDy=0;exitPerimeter=0;" edge="1" parent="1" source="SeW6sfpvjPIFp4UaxVlG-31" target="SeW6sfpvjPIFp4UaxVlG-34">
          <mxGeometry relative="1" as="geometry">
            <Array as="points">
              <mxPoint x="-479" y="710" />
              <mxPoint x="-1075" y="710" />
            </Array>
          </mxGeometry>
        </mxCell>
        <mxCell id="SeW6sfpvjPIFp4UaxVlG-103" style="edgeStyle=orthogonalEdgeStyle;rounded=0;sketch=1;hachureGap=4;jiggle=2;curveFitting=1;orthogonalLoop=1;jettySize=auto;html=1;fontFamily=Architects Daughter;fontSource=https%3A%2F%2Ffonts.googleapis.com%2Fcss%3Ffamily%3DArchitects%2BDaughter;curved=1;exitX=0.348;exitY=0.983;exitDx=0;exitDy=0;exitPerimeter=0;" edge="1" parent="1" source="SeW6sfpvjPIFp4UaxVlG-31" target="SeW6sfpvjPIFp4UaxVlG-76">
          <mxGeometry relative="1" as="geometry">
            <Array as="points">
              <mxPoint x="-460" y="720" />
              <mxPoint x="-805" y="720" />
            </Array>
          </mxGeometry>
        </mxCell>
        <mxCell id="SeW6sfpvjPIFp4UaxVlG-104" style="edgeStyle=orthogonalEdgeStyle;rounded=0;sketch=1;hachureGap=4;jiggle=2;curveFitting=1;orthogonalLoop=1;jettySize=auto;html=1;fontFamily=Architects Daughter;fontSource=https%3A%2F%2Ffonts.googleapis.com%2Fcss%3Ffamily%3DArchitects%2BDaughter;curved=1;" edge="1" parent="1" source="SeW6sfpvjPIFp4UaxVlG-18" target="SeW6sfpvjPIFp4UaxVlG-86">
          <mxGeometry relative="1" as="geometry" />
        </mxCell>
        <mxCell id="SeW6sfpvjPIFp4UaxVlG-109" style="edgeStyle=orthogonalEdgeStyle;rounded=0;sketch=1;hachureGap=4;jiggle=2;curveFitting=1;orthogonalLoop=1;jettySize=auto;html=1;entryX=0.5;entryY=0;entryDx=0;entryDy=0;fontFamily=Architects Daughter;fontSource=https%3A%2F%2Ffonts.googleapis.com%2Fcss%3Ffamily%3DArchitects%2BDaughter;curved=1;" edge="1" parent="1" source="SeW6sfpvjPIFp4UaxVlG-50" target="SeW6sfpvjPIFp4UaxVlG-108">
          <mxGeometry relative="1" as="geometry" />
        </mxCell>
        <mxCell id="SeW6sfpvjPIFp4UaxVlG-113" value="" style="group" vertex="1" connectable="0" parent="1">
          <mxGeometry x="-180" y="770" width="550" height="120" as="geometry" />
        </mxCell>
        <mxCell id="SeW6sfpvjPIFp4UaxVlG-108" value="" style="rounded=0;whiteSpace=wrap;html=1;sketch=1;hachureGap=4;jiggle=2;curveFitting=1;fontFamily=Architects Daughter;fontSource=https%3A%2F%2Ffonts.googleapis.com%2Fcss%3Ffamily%3DArchitects%2BDaughter;container=0;" vertex="1" parent="SeW6sfpvjPIFp4UaxVlG-113">
          <mxGeometry width="550" height="120" as="geometry">
            <mxRectangle x="-180" y="770" width="50" height="40" as="alternateBounds" />
          </mxGeometry>
        </mxCell>
        <mxCell id="SeW6sfpvjPIFp4UaxVlG-105" value="LiveTypeField" style="rounded=1;whiteSpace=wrap;html=1;sketch=1;hachureGap=4;jiggle=2;curveFitting=1;fontFamily=Comic Sans MS;fontSize=15;fontStyle=1;labelBackgroundColor=none;container=0;" vertex="1" parent="SeW6sfpvjPIFp4UaxVlG-113">
          <mxGeometry x="10" y="40" width="110" height="50" as="geometry" />
        </mxCell>
        <mxCell id="SeW6sfpvjPIFp4UaxVlG-106" value="LiveTypeField" style="rounded=1;whiteSpace=wrap;html=1;sketch=1;hachureGap=4;jiggle=2;curveFitting=1;fontFamily=Comic Sans MS;fontSize=15;fontStyle=1;labelBackgroundColor=none;container=0;" vertex="1" parent="SeW6sfpvjPIFp4UaxVlG-113">
          <mxGeometry x="140" y="40" width="110" height="50" as="geometry" />
        </mxCell>
        <mxCell id="SeW6sfpvjPIFp4UaxVlG-107" value="LiveTypeField" style="rounded=1;whiteSpace=wrap;html=1;sketch=1;hachureGap=4;jiggle=2;curveFitting=1;fontFamily=Comic Sans MS;fontSize=15;fontStyle=1;labelBackgroundColor=none;container=0;" vertex="1" parent="SeW6sfpvjPIFp4UaxVlG-113">
          <mxGeometry x="270" y="40" width="110" height="50" as="geometry" />
        </mxCell>
        <mxCell id="SeW6sfpvjPIFp4UaxVlG-110" value="O" style="text;html=1;align=center;verticalAlign=middle;whiteSpace=wrap;rounded=0;fontFamily=Comic Sans MS;fontSize=16;fontStyle=1;container=0;" vertex="1" parent="SeW6sfpvjPIFp4UaxVlG-113">
          <mxGeometry x="390" y="50" width="60" height="30" as="geometry" />
        </mxCell>
        <mxCell id="SeW6sfpvjPIFp4UaxVlG-111" value="O" style="text;html=1;align=center;verticalAlign=middle;whiteSpace=wrap;rounded=0;fontFamily=Comic Sans MS;fontSize=16;fontStyle=1;container=0;" vertex="1" parent="SeW6sfpvjPIFp4UaxVlG-113">
          <mxGeometry x="440" y="50" width="60" height="30" as="geometry" />
        </mxCell>
        <mxCell id="SeW6sfpvjPIFp4UaxVlG-112" value="O" style="text;html=1;align=center;verticalAlign=middle;whiteSpace=wrap;rounded=0;fontFamily=Comic Sans MS;fontSize=16;fontStyle=1;container=0;" vertex="1" parent="SeW6sfpvjPIFp4UaxVlG-113">
          <mxGeometry x="484" y="50" width="60" height="30" as="geometry" />
        </mxCell>
        <mxCell id="SeW6sfpvjPIFp4UaxVlG-171" value="LiveTypeInfo" style="rounded=1;whiteSpace=wrap;html=1;sketch=1;hachureGap=4;jiggle=2;curveFitting=1;fontFamily=Comic Sans MS;fontSize=15;fontStyle=1;labelBackgroundColor=none;container=0;" vertex="1" parent="1">
          <mxGeometry x="-1150" y="1070" width="110" height="50" as="geometry" />
        </mxCell>
        <mxCell id="SeW6sfpvjPIFp4UaxVlG-172" value="LiveTypeInfo" style="rounded=1;whiteSpace=wrap;html=1;sketch=1;hachureGap=4;jiggle=2;curveFitting=1;fontFamily=Comic Sans MS;fontSize=15;fontStyle=1;labelBackgroundColor=none;container=0;" vertex="1" parent="1">
          <mxGeometry x="-850" y="1060" width="110" height="50" as="geometry" />
        </mxCell>
        <mxCell id="SeW6sfpvjPIFp4UaxVlG-173" value="LiveTypeInfo" style="rounded=1;whiteSpace=wrap;html=1;sketch=1;hachureGap=4;jiggle=2;curveFitting=1;fontFamily=Comic Sans MS;fontSize=15;fontStyle=1;labelBackgroundColor=none;container=0;" vertex="1" parent="1">
          <mxGeometry x="-590" y="1070" width="110" height="50" as="geometry" />
        </mxCell>
      </root>
    </mxGraphModel>
  </diagram>
</mxfile>
